<svg xmlns="http://www.w3.org/2000/svg" viewBox="0 0 1440 960" role="img" aria-labelledby="title desc">
  <title>Animated Tennis Court Background</title>
  <desc>Soft green court with animated lines and floating balls</desc>
  <defs>
    <linearGradient id="g" x1="0" y1="0" x2="1" y2="1">
      <stop offset="0" stop-color="#f8fff3"/>
      <stop offset="1" stop-color="#eefded"/>
    </linearGradient>
    <clipPath id="clip"><rect x="120" y="120" width="1200" height="720" rx="28"/></clipPath>
  </defs>

  <style>
    @keyframes pan {
      from { transform: translateX(0); }
      to   { transform: translateX(-40px); }
    }
    @keyframes bob {
      0%,100% { transform: translateY(0); opacity: .35; }
      50%     { transform: translateY(-10px); opacity: .6; }
    }
    @keyframes wave {
      0%   { stroke-dashoffset: 0; }
      100% { stroke-dashoffset: 320; }
    }
    @media (prefers-reduced-motion: reduce) {
      * { animation: none !important; }
    }
  </style>

  <rect width="100%" height="100%" fill="url(#g)"/>

  <!-- Large court outline -->
  <g stroke="#98E37A" stroke-width="3" opacity=".7" clip-path="url(#clip)">
    <rect x="120" y="120" width="1200" height="720" rx="28" fill="none"/>
    <rect x="180" y="240" width="1080" height="480" rx="18" fill="none"/>
    <line x1="720" y1="240" x2="720" y2="720"/>
    <line x1="180" y1="480" x2="1260" y2="480"/>
  </g>

  <!-- Subtle moving stripes -->
  <g stroke="#BDF2A2" stroke-width="1.5" opacity=".45" transform="translate(0,0)">
    <g style="animation: pan 12s linear infinite">
      <path d="M140 180 H1260" />
      <path d="M140 860 H1260" />
      <path d="M200 260 H1200" />
      <path d="M200 700 H1200" />
    </g>
  </g>

  <!-- Floating tennis balls -->
  <g>
    <g transform="translate(260,220)" style="animation: bob 5s ease-in-out infinite">
      <circle r="20" fill="#22c55e"/>
      <path d="M -16 -2 q16 4 32 -4" stroke="#ecffde" stroke-width="3" fill="none" stroke-linecap="round"/>
      <path d="M -16  2 q16 -4 32 4" stroke="#ecffde" stroke-width="3" fill="none" stroke-linecap="round"/>
    </g>
    <g transform="translate(1180,740)" style="animation: bob 6.5s ease-in-out infinite">
      <circle r="16" fill="#16a34a"/>
      <path d="M -12 -1 q12 3 24 -3" stroke="#eaffdd" stroke-width="2.5" fill="none" stroke-linecap="round"/>
      <path d="M -12  1 q12 -3 24 3" stroke="#eaffdd" stroke-width="2.5" fill="none" stroke-linecap="round"/>
    </g>
  </g>

  <!-- Decorative waves -->
  <g stroke="#A9E88C" stroke-width="2" fill="none" opacity=".4" stroke-dasharray="160 160" style="animation: wave 18s linear infinite">
    <path d="M -50 900 C 300 640, 1140 1200, 1600 240" />
    <path d="M -120 780 C 240 520, 1180 1000, 1600 340" opacity=".7"/>
  </g>
</svg>
